<?xml version="1.0" encoding="iso-8859-1"?>
<!-- Generator: Adobe Illustrator 19.0.0, SVG Export Plug-In . SVG Version: 6.00 Build 0)  -->
<svg version="1.1" id="Capa_1" xmlns="http://www.w3.org/2000/svg" xmlns:xlink="http://www.w3.org/1999/xlink" x="0px" y="0px"
	 viewBox="0 0 512 512" style="enable-background:new 0 0 512 512;" xml:space="preserve">
<g>
	<path style="fill:#136EF1;" d="M437,181h-60.985c-8.291,0-15-6.709-15-15s6.709-15,15-15H437c8.276,0,15-6.724,15-15V76
		c0-8.291,6.709-15,15-15s15,6.709,15,15v60C482,160.814,461.814,181,437,181z"/>
	<path style="fill:#136EF1;" d="M467,451c-8.291,0-15-6.709-15-15v-60c0-8.276-6.724-15-15-15h-91c-8.291,0-15-6.709-15-15
		s6.709-15,15-15h91c24.814,0,45,20.186,45,45v60C482,444.291,475.291,451,467,451z"/>
	<path style="fill:#136EF1;" d="M497,271h-90c-8.291,0-15-6.709-15-15s6.709-15,15-15h90c8.291,0,15,6.709,15,15
		C512,264.291,505.291,271,497,271z"/>
</g>
<g>
	<path style="fill:#1689FC;" d="M135.722,181H75c-24.814,0-45-20.186-45-45V76c0-8.291,6.709-15,15-15s15,6.709,15,15v60
		c0,8.276,6.724,15,15,15h60.722c8.291,0,15,6.709,15,15S144.013,181,135.722,181z"/>
	<path style="fill:#1689FC;" d="M45,451c-8.291,0-15-6.709-15-15v-60c0-24.814,20.186-45,45-45h91c8.291,0,15,6.709,15,15
		s-6.709,15-15,15H75c-8.276,0-15,6.724-15,15v60C60,444.291,53.291,451,45,451z"/>
	<path style="fill:#1689FC;" d="M105.088,271H15c-8.291,0-15-6.709-15-15s6.709-15,15-15h90.088c8.291,0,15,6.709,15,15
		C120.088,264.291,113.379,271,105.088,271z"/>
</g>
<path style="fill:#1BD9DE;" d="M467,512c-24.814,0-45-21.186-45-46s20.186-45,45-45s45,20.186,45,45S491.814,512,467,512z"/>
<path style="fill:#1DE8F1;" d="M45,512c-24.814,0-45-21.186-45-46s20.186-45,45-45s45,20.186,45,45S69.814,512,45,512z"/>
<path style="fill:#1BD9DE;" d="M467,91c-24.814,0-45-20.186-45-45s20.186-46,45-46s45,21.186,45,46S491.814,91,467,91z"/>
<g>
	<path style="fill:#1DE8F1;" d="M45,91C20.186,91,0,70.814,0,46S20.186,0,45,0s45,21.186,45,46S69.814,91,45,91z"/>
	<path style="fill:#1DE8F1;" d="M15,301c-8.291,0-15-6.709-15-15v-60c0-8.291,6.709-15,15-15s15,6.709,15,15v60
		C30,294.291,23.291,301,15,301z"/>
</g>
<path style="fill:#E1E4FB;" d="M360.099,127.899C330.399,103.9,294.101,91,256,91c-11.7,0-23.699,1.199-35.4,3.6
	C147.4,109.9,92.1,175,90.3,248.8c-3.001,43.2,22.299,83.7,60.7,101.999V376c0,24.901,20.099,45,45,45h120c24.901,0,45-20.099,45-45
	v-25.201c24.3-11.398,44.5-32.098,54.101-57.599C419.599,281.201,422,268.9,422,256C422,206.201,398.8,159.401,360.099,127.899z"/>
<path style="fill:#C5C9F7;" d="M422,256c0,12.9-2.401,25.201-6.899,37.2c-9.6,25.501-29.801,46.201-54.101,57.599V376
	c0,24.901-20.099,45-45,45h-60V91c38.101,0,74.399,12.9,104.099,36.899C398.8,159.401,422,206.201,422,256z"/>
<path style="fill:#1689FC;" d="M316,301c-24.814,0-45-20.186-45-45c0-5.684,3.208-10.869,8.291-13.418l60-30
	c4.658-2.329,10.181-2.095,14.59,0.659C358.305,215.98,361,220.8,361,226v30C361,280.814,340.814,301,316,301z"/>
<g>
	<path style="fill:#17ACE8;" d="M196,301c-24.814,0-45-20.186-45-45v-30c0-5.2,2.695-10.02,7.119-12.759
		c4.409-2.754,9.917-2.974,14.59-0.659l60,30C237.792,245.131,241,250.316,241,256C241,280.814,220.814,301,196,301z"/>
	<path style="fill:#17ACE8;" d="M241,421v-45c0-8.284-6.716-15-15-15s-15,6.716-15,15v45H241z"/>
</g>
<path style="fill:#1689FC;" d="M301,421v-45c0-8.284-6.716-15-15-15s-15,6.716-15,15v45H301z"/>
<path style="fill:#1BD9DE;" d="M497,301c-8.291,0-15-6.709-15-15v-60c0-8.291,6.709-15,15-15s15,6.709,15,15v60
	C512,294.291,505.291,301,497,301z"/>
<g>
</g>
<g>
</g>
<g>
</g>
<g>
</g>
<g>
</g>
<g>
</g>
<g>
</g>
<g>
</g>
<g>
</g>
<g>
</g>
<g>
</g>
<g>
</g>
<g>
</g>
<g>
</g>
<g>
</g>
</svg>
