<?xml version="1.0" encoding="iso-8859-1"?>
<!-- Generator: Adobe Illustrator 19.0.0, SVG Export Plug-In . SVG Version: 6.00 Build 0)  -->
<svg version="1.1" id="Capa_1" xmlns="http://www.w3.org/2000/svg" xmlns:xlink="http://www.w3.org/1999/xlink" x="0px" y="0px"
	 viewBox="0 0 512 512" style="enable-background:new 0 0 512 512;" xml:space="preserve">
<path style="fill:#8B8992;" d="M458.11,0v104.75c0,33.92-27.59,61.5-61.5,61.5s-61.5-27.58-61.5-61.5V62.06
	c0-17.68-14.38-32.06-32.05-32.06C285.38,30,271,44.38,271,62.06v176.36h-30V62.06c0-15.42,5.65-29.55,15-40.41
	C267.39,8.4,284.26,0,303.06,0c34.21,0,62.05,27.84,62.05,62.06v42.69c0,17.37,14.13,31.5,31.5,31.5s31.5-14.13,31.5-31.5V0H458.11z
	"/>
<path style="fill:#78777F;" d="M458.11,0v104.75c0,33.92-27.59,61.5-61.5,61.5s-61.5-27.58-61.5-61.5V62.06
	c0-17.68-14.38-32.06-32.05-32.06C285.38,30,271,44.38,271,62.06v176.36h-15V21.65C267.39,8.4,284.26,0,303.06,0
	c34.21,0,62.05,27.84,62.05,62.06v42.69c0,17.37,14.13,31.5,31.5,31.5s31.5-14.13,31.5-31.5V0H458.11z"/>
<rect y="223.42" style="fill:#4CD1FF;" width="512" height="288.58"/>
<rect x="256" y="223.42" style="fill:#00A6FF;" width="256" height="288.58"/>
<g>
	<rect x="66.25" y="279.29" style="fill:#FF973F;" width="29.5" height="29.5"/>
	<rect x="112.58" y="279.29" style="fill:#FF973F;" width="29.5" height="29.5"/>
	<rect x="158.92" y="279.29" style="fill:#FF973F;" width="29.5" height="29.5"/>
	<rect x="205.25" y="279.29" style="fill:#FF973F;" width="29.5" height="29.5"/>
	<rect x="251.58" y="279.29" style="fill:#FF973F;" width="29.5" height="29.5"/>
	<rect x="297.92" y="279.29" style="fill:#FF973F;" width="29.5" height="29.5"/>
	<rect x="368.25" y="279.29" style="fill:#FF973F;" width="29.5" height="29.5"/>
	<rect x="416.25" y="279.29" style="fill:#FF973F;" width="29.5" height="29.5"/>
	<rect x="368.25" y="327.75" style="fill:#FF973F;" width="29.5" height="29.5"/>
	<rect x="416.25" y="327.75" style="fill:#FF973F;" width="29.5" height="29.5"/>
	<rect x="368.25" y="376.21" style="fill:#FF973F;" width="29.5" height="29.5"/>
	<rect x="416.25" y="376.21" style="fill:#FF973F;" width="29.5" height="29.5"/>
	<rect x="368.25" y="424.67" style="fill:#FF973F;" width="29.5" height="29.5"/>
	<rect x="416.25" y="424.67" style="fill:#FF973F;" width="29.5" height="29.5"/>
	<rect x="112.58" y="327.75" style="fill:#FF973F;" width="29.5" height="29.5"/>
	<rect x="158.92" y="327.75" style="fill:#FF973F;" width="29.5" height="29.5"/>
	<rect x="205.25" y="327.75" style="fill:#FF973F;" width="29.5" height="29.5"/>
	<rect x="251.58" y="327.75" style="fill:#FF973F;" width="29.5" height="29.5"/>
	<rect x="66.25" y="375.75" style="fill:#FF973F;" width="29.5" height="29.5"/>
	<rect x="112.58" y="375.75" style="fill:#FF973F;" width="29.5" height="29.5"/>
	<rect x="158.92" y="375.75" style="fill:#FF973F;" width="29.5" height="29.5"/>
	<rect x="205.25" y="375.75" style="fill:#FF973F;" width="29.5" height="29.5"/>
	<rect x="66.25" y="426.62" style="fill:#FF973F;" width="29.5" height="29.5"/>
	<rect x="251.58" y="426.63" style="fill:#FF973F;" width="29.5" height="29.5"/>
	<rect x="297.92" y="426.63" style="fill:#FF973F;" width="29.5" height="29.5"/>
</g>
<rect x="112.58" y="426.62" style="fill:#006EF5;" width="122.17" height="29.5"/>
<g>
	<rect x="256" y="279.29" style="fill:#F76D2A;" width="25.08" height="29.5"/>
	<rect x="256" y="327.75" style="fill:#F76D2A;" width="25.08" height="29.5"/>
	<rect x="256" y="426.63" style="fill:#F76D2A;" width="25.08" height="29.5"/>
	<rect x="297.92" y="279.29" style="fill:#F76D2A;" width="29.5" height="29.5"/>
	<rect x="297.92" y="426.63" style="fill:#F76D2A;" width="29.5" height="29.5"/>
	<rect x="368.25" y="279.29" style="fill:#F76D2A;" width="29.5" height="29.5"/>
	<rect x="368.25" y="327.75" style="fill:#F76D2A;" width="29.5" height="29.5"/>
	<rect x="368.25" y="376.21" style="fill:#F76D2A;" width="29.5" height="29.5"/>
	<rect x="368.25" y="424.67" style="fill:#F76D2A;" width="29.5" height="29.5"/>
	<rect x="416.25" y="279.29" style="fill:#F76D2A;" width="29.5" height="29.5"/>
	<rect x="416.25" y="327.75" style="fill:#F76D2A;" width="29.5" height="29.5"/>
	<rect x="416.25" y="376.21" style="fill:#F76D2A;" width="29.5" height="29.5"/>
	<rect x="416.25" y="424.67" style="fill:#F76D2A;" width="29.5" height="29.5"/>
</g>
<g>
</g>
<g>
</g>
<g>
</g>
<g>
</g>
<g>
</g>
<g>
</g>
<g>
</g>
<g>
</g>
<g>
</g>
<g>
</g>
<g>
</g>
<g>
</g>
<g>
</g>
<g>
</g>
<g>
</g>
</svg>
