<?xml version="1.0" encoding="iso-8859-1"?>
<!-- Generator: Adobe Illustrator 19.0.0, SVG Export Plug-In . SVG Version: 6.00 Build 0)  -->
<svg version="1.1" id="Capa_1" xmlns="http://www.w3.org/2000/svg" xmlns:xlink="http://www.w3.org/1999/xlink" x="0px" y="0px"
	 viewBox="0 0 512 512" style="enable-background:new 0 0 512 512;" xml:space="preserve">
<polygon style="fill:#1F3B63;" points="341.167,433.569 256.003,448.635 170.829,433.569 175.391,405.181 178.645,384.903 
	268.595,366.481 333.351,384.903 336.605,405.181 "/>
<polygon style="fill:#152C49;" points="336.605,405.181 175.391,405.181 178.645,384.903 268.595,366.481 333.351,384.903 "/>
<path style="fill:#1F3B63;" d="M470.933,384.903H41.067c-18.482,0-33.464-14.982-33.464-33.464V81.765
	c0-18.482,14.982-33.464,33.464-33.464h429.865c18.482,0,33.464,14.982,33.464,33.464V351.44
	C504.396,369.921,489.413,384.903,470.933,384.903z"/>
<path style="fill:#25C2CE;" d="M473.983,81.769v269.667c0,1.683-1.369,3.052-3.052,3.052H41.064c-1.673,0-3.042-1.369-3.042-3.052
	V81.769c0-1.683,1.369-3.052,3.042-3.052h429.867C472.615,78.717,473.983,80.086,473.983,81.769z"/>
<path style="fill:#3DDCE0;" d="M473.983,81.769v269.667c0,1.683-1.369,3.052-3.052,3.052H234.296l70.717-275.77h165.918
	C472.615,78.717,473.983,80.086,473.983,81.769z"/>
<rect x="116.594" y="433.568" style="fill:#1F3B63;" width="278.812" height="30.131"/>
<path d="M470.932,40.697H41.067C18.386,40.697,0,59.084,0,81.764v269.675c0,22.681,18.386,41.068,41.067,41.068h128.656
	l-5.372,33.457h-47.76c-4.199,0-7.604,3.405-7.604,7.604v30.131c0,4.199,3.405,7.604,7.604,7.604h278.816
	c4.199,0,7.604-3.405,7.604-7.604v-30.131c0-4.199-3.405-7.604-7.604-7.604h-47.76l-5.372-33.457h27.87
	c4.199,0,7.604-3.405,7.604-7.604l0,0c0-4.199-3.405-7.604-7.604-7.604h-36.792H178.646H41.067
	c-14.282,0.001-25.86-11.577-25.86-25.859V81.765c0-14.282,11.578-25.86,25.86-25.86h429.864c14.282,0,25.861,11.577,25.861,25.86
	v269.674c0,14.282-11.578,25.86-25.86,25.86h-65.301c-4.199,0-7.604,3.405-7.604,7.604l0,0c0,4.199,3.405,7.604,7.604,7.604h65.3
	c22.681,0,41.068-18.387,41.068-41.068V81.765C512,59.084,493.613,40.697,470.932,40.697z M387.804,456.095H124.196v-14.923h46.637
	h170.335h46.637L387.804,456.095L387.804,456.095z M326.873,392.507l5.371,33.457h-152.49l5.371-33.457H326.873z"/>
<path d="M110.613,78.717L110.613,78.717c0-4.199-3.405-7.604-7.604-7.604H41.067c-5.883,0-10.652,4.768-10.652,10.652v269.674
	c0,5.882,4.769,10.652,10.652,10.652h429.864c5.883,0,10.653-4.769,10.653-10.653V81.765c0-5.883-4.769-10.653-10.653-10.653
	H138.495c-4.199,0-7.604,3.405-7.604,7.604l0,0c0,4.199,3.405,7.604,7.604,7.604h327.881v260.562H45.624V86.32h57.387
	C107.209,86.321,110.613,82.917,110.613,78.717z"/>
<path d="M66.317,112.21l-1.97,1.223c-0.611,0.408-1.223,0.543-1.698,0.543c-1.97,0-3.329-2.106-3.329-4.212
	c0-1.426,0.611-2.785,1.97-3.6l8.967-5.434c0.543-0.34,1.223-0.476,1.97-0.476c2.174,0,4.687,1.291,4.687,3.329v43.204
	c0,2.174-2.649,3.261-5.298,3.261c-2.649,0-5.298-1.087-5.298-3.261C66.317,146.787,66.317,112.21,66.317,112.21z"/>
<path d="M98.153,112.21l-1.97,1.223c-0.611,0.408-1.223,0.543-1.698,0.543c-1.97,0-3.329-2.106-3.329-4.212
	c0-1.426,0.611-2.785,1.97-3.6l8.967-5.434c0.543-0.34,1.223-0.476,1.97-0.476c2.174,0,4.687,1.291,4.687,3.329v43.204
	c0,2.174-2.649,3.261-5.298,3.261c-2.649,0-5.298-1.087-5.298-3.261C98.153,146.787,98.153,112.21,98.153,112.21z"/>
<path d="M125.778,134.424v-18.002c0-11.684,7.268-16.032,16.643-16.032c9.374,0,16.71,4.347,16.71,16.032v18.001
	c0,11.684-7.336,16.031-16.71,16.031C133.046,150.454,125.778,146.107,125.778,134.424z M148.534,116.422
	c0-4.687-2.31-6.793-6.114-6.793c-3.804,0-6.046,2.106-6.046,6.793v18.001c0,4.687,2.242,6.793,6.046,6.793
	c3.804,0,6.114-2.106,6.114-6.793V116.422z"/>
<path d="M175.342,134.424v-18.002c0-11.684,7.268-16.032,16.643-16.032s16.71,4.347,16.71,16.032v18.001
	c0,11.684-7.336,16.031-16.71,16.031S175.342,146.107,175.342,134.424z M198.098,116.422c0-4.687-2.31-6.793-6.114-6.793
	c-3.804,0-6.046,2.106-6.046,6.793v18.001c0,4.687,2.242,6.793,6.046,6.793c3.804,0,6.114-2.106,6.114-6.793V116.422z"/>
<path d="M229.117,112.21l-1.97,1.223c-0.611,0.408-1.223,0.543-1.698,0.543c-1.97,0-3.329-2.106-3.329-4.212
	c0-1.426,0.611-2.785,1.97-3.6l8.967-5.434c0.543-0.34,1.223-0.476,1.97-0.476c2.174,0,4.687,1.291,4.687,3.329v43.204
	c0,2.174-2.649,3.261-5.298,3.261c-2.649,0-5.298-1.087-5.298-3.261L229.117,112.21L229.117,112.21z"/>
<path d="M256.742,134.424v-18.002c0-11.684,7.268-16.032,16.643-16.032c9.374,0,16.71,4.347,16.71,16.032v18.001
	c0,11.684-7.336,16.031-16.71,16.031C264.011,150.454,256.742,146.107,256.742,134.424z M279.499,116.422
	c0-4.687-2.31-6.793-6.114-6.793s-6.046,2.106-6.046,6.793v18.001c0,4.687,2.242,6.793,6.046,6.793s6.114-2.106,6.114-6.793V116.422
	z"/>
<path d="M310.518,112.21l-1.97,1.223c-0.612,0.408-1.223,0.543-1.698,0.543c-1.97,0-3.328-2.106-3.328-4.212
	c0-1.426,0.611-2.785,1.969-3.6l8.968-5.434c0.543-0.34,1.223-0.476,1.97-0.476c2.174,0,4.687,1.291,4.687,3.329v43.204
	c0,2.174-2.649,3.261-5.299,3.261s-5.298-1.087-5.298-3.261V112.21H310.518z"/>
<path d="M338.142,134.424v-18.002c0-11.684,7.268-16.032,16.643-16.032c9.374,0,16.71,4.347,16.71,16.032v18.001
	c0,11.684-7.336,16.031-16.71,16.031C345.41,150.454,338.142,146.107,338.142,134.424z M360.899,116.422
	c0-4.687-2.31-6.793-6.114-6.793s-6.046,2.106-6.046,6.793v18.001c0,4.687,2.242,6.793,6.046,6.793c3.804,0,6.114-2.106,6.114-6.793
	V116.422z"/>
<path d="M387.707,134.424v-18.002c0-11.684,7.268-16.032,16.643-16.032s16.71,4.347,16.71,16.032v18.001
	c0,11.684-7.336,16.031-16.71,16.031S387.707,146.107,387.707,134.424z M410.463,116.422c0-4.687-2.31-6.793-6.114-6.793
	s-6.046,2.106-6.046,6.793v18.001c0,4.687,2.242,6.793,6.046,6.793s6.114-2.106,6.114-6.793V116.422z"/>
<path d="M441.484,112.21l-1.97,1.223c-0.612,0.408-1.223,0.543-1.698,0.543c-1.97,0-3.328-2.106-3.328-4.212
	c0-1.426,0.611-2.785,1.969-3.6l8.968-5.434c0.543-0.34,1.223-0.476,1.97-0.476c2.174,0,4.687,1.291,4.687,3.329v43.204
	c0,2.174-2.649,3.261-5.299,3.261c-2.65,0-5.298-1.087-5.298-3.261V112.21H441.484z"/>
<path d="M62.106,195.255v-18.002c0-11.684,7.268-16.032,16.643-16.032s16.71,4.347,16.71,16.032v18.001
	c0,11.684-7.336,16.031-16.71,16.031S62.106,206.938,62.106,195.255z M84.862,177.253c0-4.687-2.31-6.793-6.114-6.793
	s-6.046,2.106-6.046,6.793v18.001c0,4.687,2.242,6.793,6.046,6.793s6.114-2.106,6.114-6.793V177.253z"/>
<path d="M109.701,195.255v-18.002c0-11.684,7.268-16.032,16.643-16.032s16.71,4.347,16.71,16.032v18.001
	c0,11.684-7.336,16.031-16.71,16.031S109.701,206.938,109.701,195.255z M132.457,177.253c0-4.687-2.31-6.793-6.114-6.793
	c-3.804,0-6.046,2.106-6.046,6.793v18.001c0,4.687,2.242,6.793,6.046,6.793c3.804,0,6.114-2.106,6.114-6.793V177.253z"/>
<path d="M157.295,195.255v-18.002c0-11.684,7.268-16.032,16.643-16.032s16.71,4.347,16.71,16.032v18.001
	c0,11.684-7.336,16.031-16.71,16.031S157.295,206.938,157.295,195.255z M180.052,177.253c0-4.687-2.31-6.793-6.114-6.793
	c-3.804,0-6.046,2.106-6.046,6.793v18.001c0,4.687,2.242,6.793,6.046,6.793c3.804,0,6.114-2.106,6.114-6.793V177.253z"/>
<path d="M204.89,195.255v-18.002c0-11.684,7.268-16.032,16.643-16.032s16.71,4.347,16.71,16.032v18.001
	c0,11.684-7.336,16.031-16.71,16.031S204.89,206.938,204.89,195.255z M227.646,177.253c0-4.687-2.31-6.793-6.114-6.793
	c-3.804,0-6.046,2.106-6.046,6.793v18.001c0,4.687,2.242,6.793,6.046,6.793c3.804,0,6.114-2.106,6.114-6.793V177.253z"/>
<path d="M252.485,195.255v-18.002c0-11.684,7.267-16.032,16.644-16.032c9.374,0,16.709,4.347,16.709,16.032v18.001
	c0,11.684-7.335,16.031-16.709,16.031C259.752,211.287,252.485,206.938,252.485,195.255z M275.24,177.253
	c0-4.687-2.309-6.793-6.113-6.793c-3.805,0-6.047,2.106-6.047,6.793v18.001c0,4.687,2.242,6.793,6.047,6.793
	c3.804,0,6.113-2.106,6.113-6.793V177.253z"/>
<path d="M304.291,173.042l-1.97,1.223c-0.612,0.408-1.223,0.543-1.698,0.543c-1.97,0-3.328-2.106-3.328-4.212
	c0-1.426,0.611-2.785,1.969-3.6l8.968-5.434c0.543-0.34,1.223-0.475,1.97-0.475c2.174,0,4.687,1.291,4.687,3.329v43.204
	c0,2.174-2.649,3.261-5.299,3.261s-5.298-1.087-5.298-3.261v-34.577H304.291z"/>
<path d="M329.945,195.255v-18.002c0-11.684,7.268-16.032,16.643-16.032c9.374,0,16.71,4.347,16.71,16.032v18.001
	c0,11.684-7.336,16.031-16.71,16.031C337.213,211.286,329.945,206.938,329.945,195.255z M352.702,177.253
	c0-4.687-2.31-6.793-6.114-6.793s-6.046,2.106-6.046,6.793v18.001c0,4.687,2.242,6.793,6.046,6.793s6.114-2.106,6.114-6.793V177.253
	z"/>
<path d="M381.751,173.042l-1.97,1.223c-0.612,0.408-1.223,0.543-1.698,0.543c-1.97,0-3.329-2.106-3.329-4.212
	c0-1.426,0.611-2.785,1.969-3.6l8.968-5.434c0.543-0.34,1.223-0.475,1.97-0.475c2.174,0,4.687,1.291,4.687,3.329v43.204
	c0,2.174-2.649,3.261-5.299,3.261c-2.65,0-5.298-1.087-5.298-3.261v-34.577H381.751z"/>
<path d="M411.618,173.042l-1.97,1.223c-0.612,0.408-1.223,0.543-1.698,0.543c-1.97,0-3.328-2.106-3.328-4.212
	c0-1.426,0.611-2.785,1.969-3.6l8.968-5.434c0.543-0.34,1.223-0.475,1.97-0.475c2.174,0,4.687,1.291,4.687,3.329v43.204
	c0,2.174-2.649,3.261-5.299,3.261c-2.65,0-5.298-1.087-5.298-3.261v-34.577H411.618z"/>
<path d="M441.484,173.042l-1.97,1.223c-0.612,0.408-1.223,0.543-1.698,0.543c-1.97,0-3.328-2.106-3.328-4.212
	c0-1.426,0.611-2.785,1.969-3.6l8.968-5.434c0.543-0.34,1.223-0.475,1.97-0.475c2.174,0,4.687,1.291,4.687,3.329v43.204
	c0,2.174-2.649,3.261-5.299,3.261c-2.65,0-5.298-1.087-5.298-3.261v-34.577H441.484z"/>
<path d="M66.317,233.873l-1.97,1.223c-0.611,0.408-1.223,0.543-1.698,0.543c-1.97,0-3.329-2.106-3.329-4.212
	c0-1.426,0.611-2.785,1.97-3.6l8.967-5.434c0.543-0.34,1.223-0.475,1.97-0.475c2.174,0,4.687,1.291,4.687,3.329v43.204
	c0,2.174-2.649,3.261-5.298,3.261c-2.649,0-5.298-1.087-5.298-3.261C66.317,268.45,66.317,233.873,66.317,233.873z"/>
<path d="M98.153,233.873l-1.97,1.223c-0.611,0.408-1.223,0.543-1.698,0.543c-1.97,0-3.329-2.106-3.329-4.212
	c0-1.426,0.611-2.785,1.97-3.6l8.967-5.434c0.543-0.34,1.223-0.475,1.97-0.475c2.174,0,4.687,1.291,4.687,3.329v43.204
	c0,2.174-2.649,3.261-5.298,3.261c-2.649,0-5.298-1.087-5.298-3.261C98.153,268.45,98.153,233.873,98.153,233.873z"/>
<path d="M125.778,256.087v-18.002c0-11.684,7.268-16.032,16.643-16.032c9.374,0,16.71,4.347,16.71,16.032v18.001
	c0,11.684-7.336,16.031-16.71,16.031C133.046,272.117,125.778,267.77,125.778,256.087z M148.534,238.085
	c0-4.687-2.31-6.793-6.114-6.793c-3.804,0-6.046,2.106-6.046,6.793v18.001c0,4.687,2.242,6.793,6.046,6.793
	c3.804,0,6.114-2.106,6.114-6.793V238.085z"/>
<path d="M179.553,233.873l-1.97,1.223c-0.611,0.408-1.223,0.543-1.698,0.543c-1.97,0-3.329-2.106-3.329-4.212
	c0-1.426,0.611-2.785,1.97-3.6l8.967-5.434c0.543-0.34,1.223-0.475,1.97-0.475c2.174,0,4.687,1.291,4.687,3.329v43.204
	c0,2.174-2.649,3.261-5.298,3.261c-2.649,0-5.298-1.087-5.298-3.261L179.553,233.873L179.553,233.873z"/>
<path d="M207.178,256.087v-18.002c0-11.684,7.268-16.032,16.643-16.032s16.71,4.347,16.71,16.032v18.001
	c0,11.684-7.336,16.031-16.71,16.031S207.178,267.77,207.178,256.087z M229.934,238.085c0-4.687-2.31-6.793-6.114-6.793
	c-3.804,0-6.046,2.106-6.046,6.793v18.001c0,4.687,2.242,6.793,6.046,6.793c3.804,0,6.114-2.106,6.114-6.793V238.085z"/>
<path d="M256.742,256.087v-18.002c0-11.684,7.268-16.032,16.643-16.032c9.374,0,16.71,4.347,16.71,16.032v18.001
	c0,11.684-7.336,16.031-16.71,16.031C264.011,272.117,256.742,267.77,256.742,256.087z M279.499,238.085
	c0-4.687-2.31-6.793-6.114-6.793s-6.046,2.106-6.046,6.793v18.001c0,4.687,2.242,6.793,6.046,6.793s6.114-2.106,6.114-6.793V238.085
	z"/>
<path d="M310.518,233.873l-1.97,1.223c-0.612,0.408-1.223,0.543-1.698,0.543c-1.97,0-3.328-2.106-3.328-4.212
	c0-1.426,0.611-2.785,1.969-3.6l8.968-5.434c0.543-0.34,1.223-0.475,1.97-0.475c2.174,0,4.687,1.291,4.687,3.329v43.204
	c0,2.174-2.649,3.261-5.299,3.261s-5.298-1.087-5.298-3.261v-34.577H310.518z"/>
<path d="M338.142,256.087v-18.002c0-11.684,7.268-16.032,16.643-16.032c9.374,0,16.71,4.347,16.71,16.032v18.001
	c0,11.684-7.336,16.031-16.71,16.031C345.41,272.117,338.142,267.77,338.142,256.087z M360.899,238.085
	c0-4.687-2.31-6.793-6.114-6.793s-6.046,2.106-6.046,6.793v18.001c0,4.687,2.242,6.793,6.046,6.793c3.804,0,6.114-2.106,6.114-6.793
	V238.085z"/>
<path d="M387.707,256.087v-18.002c0-11.684,7.268-16.032,16.643-16.032s16.71,4.347,16.71,16.032v18.001
	c0,11.684-7.336,16.031-16.71,16.031S387.707,267.77,387.707,256.087z M410.463,238.085c0-4.687-2.31-6.793-6.114-6.793
	s-6.046,2.106-6.046,6.793v18.001c0,4.687,2.242,6.793,6.046,6.793s6.114-2.106,6.114-6.793V238.085z"/>
<path d="M441.483,233.873l-1.97,1.223c-0.612,0.408-1.223,0.543-1.698,0.543c-1.97,0-3.328-2.106-3.328-4.212
	c0-1.426,0.611-2.785,1.969-3.6l8.968-5.434c0.543-0.34,1.223-0.475,1.97-0.475c2.174,0,4.687,1.291,4.687,3.329v43.204
	c0,2.174-2.649,3.261-5.299,3.261s-5.298-1.087-5.298-3.261v-34.577H441.483z"/>
<path d="M62.323,316.919v-18.002c0-11.684,7.268-16.032,16.643-16.032s16.71,4.347,16.71,16.032v18.001
	c0,11.684-7.336,16.031-16.71,16.031S62.323,328.602,62.323,316.919z M85.079,298.917c0-4.687-2.31-6.793-6.114-6.793
	c-3.804,0-6.046,2.106-6.046,6.793v18.001c0,4.687,2.242,6.793,6.046,6.793c3.804,0,6.114-2.106,6.114-6.793V298.917z"/>
<path d="M114.081,294.705l-1.97,1.223c-0.611,0.408-1.223,0.543-1.698,0.543c-1.97,0-3.329-2.106-3.329-4.212
	c0-1.427,0.611-2.785,1.97-3.6l8.967-5.434c0.543-0.34,1.223-0.475,1.97-0.475c2.174,0,4.687,1.291,4.687,3.328v43.204
	c0,2.174-2.649,3.261-5.298,3.261s-5.298-1.087-5.298-3.261C114.081,329.282,114.081,294.705,114.081,294.705z"/>
<path d="M139.687,316.919v-18.002c0-11.684,7.268-16.032,16.643-16.032c9.374,0,16.71,4.347,16.71,16.032v18.001
	c0,11.684-7.336,16.031-16.71,16.031C146.955,332.949,139.687,328.602,139.687,316.919z M162.444,298.917
	c0-4.687-2.31-6.793-6.114-6.793c-3.804,0-6.046,2.106-6.046,6.793v18.001c0,4.687,2.242,6.793,6.046,6.793
	c3.804,0,6.114-2.106,6.114-6.793V298.917z"/>
<path d="M191.444,294.705l-1.97,1.223c-0.611,0.408-1.223,0.543-1.698,0.543c-1.97,0-3.329-2.106-3.329-4.212
	c0-1.427,0.611-2.785,1.97-3.6l8.967-5.434c0.543-0.34,1.223-0.475,1.97-0.475c2.174,0,4.687,1.291,4.687,3.328v43.204
	c0,2.174-2.649,3.261-5.298,3.261c-2.649,0-5.298-1.087-5.298-3.261L191.444,294.705L191.444,294.705z"/>
<path d="M217.052,316.919v-18.002c0-11.684,7.268-16.032,16.643-16.032c9.374,0,16.71,4.347,16.71,16.032v18.001
	c0,11.684-7.336,16.031-16.71,16.031C224.32,332.949,217.052,328.602,217.052,316.919z M239.808,298.917
	c0-4.687-2.31-6.793-6.114-6.793c-3.804,0-6.046,2.106-6.046,6.793v18.001c0,4.687,2.242,6.793,6.046,6.793
	c3.804,0,6.114-2.106,6.114-6.793V298.917z"/>
<path d="M268.81,294.705l-1.97,1.223c-0.612,0.408-1.223,0.543-1.698,0.543c-1.97,0-3.328-2.106-3.328-4.212
	c0-1.427,0.611-2.785,1.969-3.6l8.968-5.434c0.543-0.34,1.223-0.475,1.97-0.475c2.174,0,4.687,1.291,4.687,3.328v43.204
	c0,2.174-2.649,3.261-5.299,3.261c-2.65,0-5.298-1.087-5.298-3.261v-34.577H268.81z"/>
<path d="M294.415,316.919v-18.002c0-11.684,7.268-16.032,16.643-16.032c9.374,0,16.71,4.347,16.71,16.032v18.001
	c0,11.684-7.336,16.031-16.71,16.031C301.684,332.949,294.415,328.602,294.415,316.919z M317.172,298.917
	c0-4.687-2.31-6.793-6.114-6.793c-3.804,0-6.046,2.106-6.046,6.793v18.001c0,4.687,2.242,6.793,6.046,6.793
	c3.804,0,6.114-2.106,6.114-6.793V298.917z"/>
<path d="M346.173,294.705l-1.97,1.223c-0.612,0.408-1.223,0.543-1.698,0.543c-1.97,0-3.328-2.106-3.328-4.212
	c0-1.427,0.611-2.785,1.969-3.6l8.968-5.434c0.543-0.34,1.223-0.475,1.97-0.475c2.174,0,4.687,1.291,4.687,3.328v43.204
	c0,2.174-2.649,3.261-5.299,3.261s-5.298-1.087-5.298-3.261v-34.577H346.173z"/>
<path d="M371.779,316.919v-18.002c0-11.684,7.268-16.032,16.643-16.032c9.374,0,16.71,4.347,16.71,16.032v18.001
	c0,11.684-7.336,16.031-16.71,16.031C379.047,332.949,371.779,328.602,371.779,316.919z M394.535,298.917
	c0-4.687-2.31-6.793-6.114-6.793s-6.046,2.106-6.046,6.793v18.001c0,4.687,2.242,6.793,6.046,6.793s6.114-2.106,6.114-6.793V298.917
	z"/>
<path d="M419.326,316.919v-18.002c0-11.684,7.268-16.032,16.643-16.032c9.374,0,16.71,4.347,16.71,16.032v18.001
	c0,11.684-7.336,16.031-16.71,16.031C426.594,332.949,419.326,328.602,419.326,316.919z M442.082,298.917
	c0-4.687-2.31-6.793-6.114-6.793c-3.804,0-6.046,2.106-6.046,6.793v18.001c0,4.687,2.242,6.793,6.046,6.793
	c3.804,0,6.114-2.106,6.114-6.793V298.917z"/>
<g>
</g>
<g>
</g>
<g>
</g>
<g>
</g>
<g>
</g>
<g>
</g>
<g>
</g>
<g>
</g>
<g>
</g>
<g>
</g>
<g>
</g>
<g>
</g>
<g>
</g>
<g>
</g>
<g>
</g>
</svg>
