<?xml version="1.0" encoding="iso-8859-1"?>
<!-- Generator: Adobe Illustrator 19.0.0, SVG Export Plug-In . SVG Version: 6.00 Build 0)  -->
<svg version="1.1" id="Capa_1" xmlns="http://www.w3.org/2000/svg" xmlns:xlink="http://www.w3.org/1999/xlink" x="0px" y="0px"
	 viewBox="0 0 512 512" style="enable-background:new 0 0 512 512;" xml:space="preserve">
<g>
	<polygon style="fill:#FFFFFF;" points="310.4,504 201.6,504 212,444 300,444 	"/>
	<rect x="8" y="8" style="fill:#FFFFFF;" width="496" height="436"/>
</g>
<rect x="40" y="40" style="fill:#2EA2DB;" width="432" height="326.4"/>
<g>
	<rect x="182.4" y="395.2" style="fill:#193651;" width="16" height="16"/>
	<rect x="313.6" y="395.2" style="fill:#193651;" width="16" height="16"/>
</g>
<circle style="fill:#F16051;" cx="256" cy="403.2" r="16"/>
<g>
	<path style="fill:#193651;" d="M512,452V0H0v452h202.4l-8,44h-20v16H192h128h17.6v-16h-20l-8-44H512z M16,436V16h480v420H16z
		 M300.8,496h-89.6l8-44h74.4L300.8,496z"/>
	<polygon style="fill:#193651;" points="311.2,268 375.2,203.2 311.2,138.4 299.2,150.4 352.8,203.2 299.2,256.8 	"/>
	<polygon style="fill:#193651;" points="200.8,138.4 136.8,203.2 200.8,268 212.8,256.8 159.2,203.2 212.8,150.4 	"/>
	
		<rect x="248.124" y="140.996" transform="matrix(0.9497 0.313 -0.313 0.9497 76.4108 -69.9699)" style="fill:#193651;" width="15.999" height="123.994"/>
</g>
<polygon style="fill:#FFFFFF;" points="97.6,64 108,84.8 130.4,88 113.6,104.8 117.6,127.2 97.6,116.8 76.8,127.2 80.8,104.8 64,88 
	87.2,84.8 "/>
<g>
</g>
<g>
</g>
<g>
</g>
<g>
</g>
<g>
</g>
<g>
</g>
<g>
</g>
<g>
</g>
<g>
</g>
<g>
</g>
<g>
</g>
<g>
</g>
<g>
</g>
<g>
</g>
<g>
</g>
</svg>
